<svg class= "rotunda-logo" width="120" height="34" viewBox="0 0 120 34" fill="none" xmlns="http://www.w3.org/2000/svg">
    <g clip-path="url(#clip0_4_223)">
        <path d="M31.8336 16.0607C31.7374 16.5381 31.6063 17.012 31.4384 17.4736C31.3807 17.6328 31.316 17.7919 31.2495 17.9493C31.1498 18.1889 31.0397 18.4249 30.9208 18.6575C30.8631 18.7694 30.8036 18.8796 30.7424 18.9915C30.6847 19.0964 30.6252 19.1996 30.5623 19.3028C30.4871 19.4287 30.4119 19.5563 30.3314 19.6805L30.2895 19.7452C30.23 19.8361 30.1653 19.9271 30.1024 20.0163C30.1706 20.4394 30.2108 20.3817 30.2108 20.8189C30.2108 21.1704 30.1863 21.5167 30.1426 21.8594C30.0412 22.6358 29.8261 23.3895 29.5113 24.11C29.3015 24.5909 29.0461 25.0578 28.7489 25.5055C28.3764 26.0686 27.9392 26.6054 27.4426 27.1073C27.3674 27.1842 27.2869 27.2559 27.2082 27.3311C27.1488 27.3888 27.0911 27.4465 27.0281 27.5025C26.9687 27.5567 26.9092 27.6109 26.8498 27.6634V23.2391C26.3706 23.5801 25.8687 23.8984 25.3441 24.1922V28.8105C25.2847 28.849 25.2252 28.8875 25.164 28.926C25.1045 28.9644 25.0451 28.9994 24.9856 29.0344C24.2494 29.4873 23.4538 29.886 22.6056 30.2235C22.0915 30.4264 21.5599 30.6082 21.0108 30.7639C19.7954 31.1101 18.4996 31.3339 17.1531 31.4196C17.0937 31.4231 17.0342 31.4266 16.973 31.4301C16.9136 31.4336 16.8541 31.4371 16.7947 31.4406V26.5197C16.5901 26.5285 16.3837 26.5337 16.1774 26.5355H16.1459C16.0724 26.5355 15.999 26.5372 15.9255 26.5372C15.7157 26.5372 15.5024 26.5337 15.289 26.5267V31.4476C15.2296 31.4476 15.1701 31.4424 15.1106 31.4406C15.0512 31.4371 14.9917 31.4336 14.9305 31.4301C14.8134 31.4249 14.6962 31.4196 14.5808 31.4126C12.8251 31.2902 11.1603 30.9282 9.64591 30.3739C9.09331 30.171 8.55996 29.942 8.05108 29.6901C7.64013 29.4873 7.24667 29.267 6.8672 29.0361C6.806 28.9977 6.74829 28.9609 6.68708 28.9225C6.62763 28.884 6.56642 28.8473 6.50871 28.8088V24.1887C5.98235 23.8967 5.48047 23.5801 5.00307 23.2391V27.6634C4.94187 27.6092 4.88416 27.5532 4.82295 27.499C4.7635 27.4448 4.70229 27.3906 4.64458 27.3346C4.49594 27.1912 4.3508 27.0461 4.2109 26.8974C3.76848 26.4253 3.37502 25.9269 3.03927 25.4023C2.76996 24.9844 2.53738 24.5524 2.34328 24.1065C2.02851 23.386 1.81342 22.6341 1.71199 21.8559C1.66827 21.5132 1.64379 21.1669 1.64379 20.8154C1.64379 20.3782 1.68401 20.4359 1.75221 20.0128C1.68926 19.9236 1.62805 19.8326 1.5686 19.7435L1.52313 19.6718C1.4252 19.5231 1.33427 19.371 1.24508 19.2188C1.18213 19.1122 1.12442 19.0055 1.06497 18.8971C1.00376 18.7852 0.942557 18.6732 0.886598 18.5596C0.785173 18.3567 0.694239 18.1521 0.606804 17.9458C0.540353 17.7866 0.47565 17.6275 0.417943 17.4684C0.220338 16.9245 0.097928 16.6255 0 16.0607C0 16.0607 0 20.8382 0 20.8504C0 21.09 0.012241 21.3278 0.0297281 21.5621C0.097928 22.4382 0.28504 23.2881 0.578824 24.1048C0.853373 24.8637 1.21885 25.5929 1.66827 26.2854C1.68226 26.3081 1.69625 26.3326 1.71199 26.3553C1.98479 26.7698 2.28732 27.1702 2.61608 27.5567C3.09348 28.1146 3.62683 28.6409 4.2109 29.1323C5.32134 30.0626 6.61713 30.8618 8.04933 31.4931C8.56345 31.7204 9.09681 31.925 9.64416 32.1069C11.1813 32.6175 12.8408 32.9463 14.579 33.0599C15.0232 33.0896 15.4726 33.1054 15.9255 33.1054C16.0095 33.1054 16.0917 33.1054 16.1756 33.1036C17.8631 33.0844 19.4894 32.8606 21.0108 32.4636C21.5564 32.322 22.088 32.1558 22.6056 31.9722C24.4295 31.3199 26.0681 30.4071 27.4426 29.2984C28.0249 28.828 28.5583 28.3226 29.0374 27.7858C29.4448 27.3311 29.8138 26.8537 30.1408 26.3571C30.1548 26.3344 30.1688 26.3116 30.1846 26.2906C30.634 25.5964 30.9995 24.8672 31.274 24.1065C31.5678 23.2898 31.7549 22.44 31.8231 21.5639C31.8371 21.3855 31.8441 21.2054 31.8493 21.0253C31.8493 20.9658 31.8301 16.0554 31.8301 16.0554L31.8336 16.0607Z" fill="#FFFFFF"/>
        <path d="M0.0196447 13.5635C0.0231421 13.623 0.0266395 13.6825 0.030137 13.7437C0.030137 13.7524 0.030137 13.7612 0.030137 13.7681C0.0336344 13.8206 0.0388805 13.8713 0.0441267 13.922C0.110578 14.6355 0.255721 15.3332 0.476059 16.0083C0.509285 16.1097 0.54251 16.2094 0.579233 16.309C0.652679 16.5154 0.736617 16.7182 0.824053 16.9193C0.843289 16.9648 0.866022 17.0085 0.887007 17.054C0.944714 17.1816 1.00242 17.311 1.06538 17.437C1.12133 17.5489 1.18429 17.6608 1.24549 17.771C1.3784 18.014 1.51829 18.2553 1.67043 18.4897C1.68442 18.5124 1.69841 18.5369 1.71415 18.5579C1.7736 18.6488 1.83481 18.738 1.89776 18.8272C2.11985 19.1454 2.36117 19.4567 2.61823 19.7592C3.09563 20.3171 3.62899 20.8452 4.21306 21.3348C4.51209 21.5867 4.82686 21.8262 5.15212 22.0571C5.23781 22.1183 5.32349 22.1777 5.41093 22.2354C5.50011 22.2949 5.5893 22.3543 5.68023 22.4138C5.94953 22.5887 6.22583 22.7583 6.50912 22.9209C6.56858 22.9541 6.62804 22.9856 6.68749 23.0188C6.74695 23.0521 6.8064 23.0853 6.86761 23.1168C7.25058 23.3214 7.64579 23.5155 8.05149 23.6956C8.56561 23.9229 9.09897 24.1275 9.64632 24.3094C11.1834 24.82 12.843 25.1488 14.5812 25.2624C14.6966 25.2694 14.8155 25.2729 14.9309 25.2799C14.9904 25.2834 15.0498 25.2869 15.111 25.2887C15.1705 25.2904 15.23 25.2939 15.2894 25.2957C15.501 25.3027 15.7126 25.3062 15.9259 25.3062C16.0099 25.3062 16.0921 25.3062 16.176 25.3044C16.3824 25.3027 16.5887 25.2957 16.7951 25.2869C16.8545 25.2852 16.914 25.2799 16.9734 25.2764C17.0329 25.2729 17.0923 25.2694 17.1535 25.2659C18.4913 25.1873 19.7854 24.9827 21.0112 24.6626C21.5568 24.521 22.0884 24.3549 22.606 24.1695C23.4419 23.8705 24.2358 23.5155 24.986 23.1133C25.0455 23.0818 25.1067 23.0503 25.1644 23.0188C25.2256 22.9856 25.2833 22.9506 25.3445 22.9157C25.6278 22.7548 25.9041 22.5869 26.1717 22.412C26.2626 22.3526 26.3553 22.2931 26.4445 22.2337C26.5301 22.1742 26.6158 22.1148 26.6998 22.0553C26.9551 21.8752 27.2034 21.6898 27.443 21.4975C28.0253 21.0271 28.5587 20.5217 29.0378 19.9848C29.3701 19.6141 29.6761 19.2276 29.9541 18.8289C30.0171 18.7397 30.08 18.6488 30.1412 18.5561C30.1552 18.5334 30.1692 18.5124 30.185 18.4897C30.3179 18.2833 30.442 18.0717 30.5609 17.8601C30.6239 17.75 30.6833 17.6381 30.7411 17.5261C30.804 17.4037 30.8617 17.2796 30.9194 17.1554C30.9561 17.0767 30.9946 16.998 31.0296 16.9176C31.1188 16.7165 31.201 16.5119 31.2744 16.3055C31.3094 16.2059 31.3444 16.1062 31.3776 16.0048C31.5787 15.384 31.7186 14.7439 31.7938 14.0917C31.8008 14.0322 31.806 13.9727 31.8113 13.9115C31.8165 13.8626 31.8218 13.8136 31.8253 13.7629C31.8253 13.7524 31.8253 13.7419 31.827 13.7314C31.8357 13.6055 31.8427 13.4814 31.848 13.3555C31.8532 13.2418 31.855 13.1281 31.855 13.0145C31.855 12.2363 31.7588 11.4756 31.5787 10.7359C31.1607 9.02039 30.2794 7.42906 29.0378 6.04408C28.5569 5.50897 28.0235 5.00184 27.443 4.53144C26.0702 3.42276 24.4317 2.51168 22.606 1.85766C22.0884 1.67229 21.5568 1.50791 21.0112 1.36627C19.4916 0.974556 17.8653 0.75247 16.1795 0.731485C16.0956 0.731485 16.0134 0.729736 15.9294 0.729736C15.4765 0.729736 15.0271 0.745475 14.5829 0.775203C12.843 0.887121 11.1834 1.21763 9.64806 1.72825C9.10072 1.91012 8.56736 2.11647 8.05324 2.34205C6.39895 3.07126 4.93003 4.02257 3.71468 5.14349C3.32297 5.50547 2.95748 5.88495 2.61998 6.27841C1.47457 7.61967 0.661423 9.1428 0.269711 10.7796C0.0948394 11.5071 0.00390625 12.2555 0.00390625 13.0214C0.00390625 13.1334 0.00740368 13.2435 0.0109011 13.3555C0.0143985 13.4254 0.017896 13.4953 0.0213934 13.5653L0.0196447 13.5635ZM30.2129 13.0197C30.2129 13.1281 30.2059 13.2348 30.2024 13.3432C30.192 13.5845 30.1762 13.8241 30.1447 14.0602C30.1028 14.3819 30.0398 14.6985 29.9611 15.0097C29.9314 14.9643 29.8789 14.8996 29.8492 14.8541C29.5782 14.4711 29.3631 14.2106 29.0431 13.8521C28.5622 13.317 28.0288 12.8099 27.4482 12.3394C27.3713 12.2782 27.2908 12.2188 27.2139 12.1593C27.1544 12.1139 27.095 12.0667 27.0338 12.0212C26.9743 11.9757 26.9149 11.932 26.8554 11.8883V7.55847C26.3955 7.14402 25.8901 6.75755 25.3498 6.39907V10.9195C25.2903 10.8863 25.2309 10.8513 25.1696 10.8181C25.1102 10.7848 25.0507 10.7551 24.9913 10.7236C24.2411 10.3214 23.4472 9.96644 22.6113 9.66741C22.0937 9.48205 21.5621 9.31767 21.0165 9.17428C19.7906 8.85426 18.4966 8.64966 17.1588 8.57097C17.0993 8.56747 17.0399 8.56398 16.9787 8.56048C16.9192 8.55698 16.8598 8.55348 16.8003 8.54999V3.74277C16.594 3.73403 16.3876 3.72703 16.1795 3.72528H16.1305C16.0641 3.72528 15.9976 3.72354 15.9329 3.72354C15.7231 3.72354 15.5098 3.72703 15.2964 3.73578V8.54474C15.237 8.54649 15.1775 8.54999 15.118 8.55173C15.0586 8.55348 14.9991 8.55698 14.9379 8.56048C14.8208 8.56572 14.7036 8.57097 14.5882 8.57797C12.8482 8.68988 11.1887 9.01864 9.65331 9.53102C9.10596 9.71288 8.57261 9.91923 8.05848 10.1448C7.65278 10.3232 7.25757 10.5173 6.8746 10.7219C6.8134 10.7534 6.75569 10.7883 6.69449 10.8216C6.63503 10.8548 6.57557 10.888 6.51612 10.923V6.39557C5.97402 6.75406 5.47213 7.14577 5.01047 7.56371V11.8935C4.95102 11.9372 4.88981 11.981 4.83036 12.0264C4.7709 12.0719 4.7097 12.1156 4.65199 12.1611C4.32673 12.4129 4.01546 12.6752 3.71817 12.9497C3.32646 13.3117 2.96098 13.6912 2.62348 14.0847C2.37866 14.3715 2.26674 14.5061 2.0534 14.8086C2.00444 14.8803 1.95022 14.9573 1.90476 15.0185C1.82432 14.7055 1.76311 14.3872 1.71939 14.0654C1.68792 13.8241 1.67043 13.5793 1.66169 13.3345C1.65819 13.2313 1.65119 13.1299 1.65119 13.0267C1.65119 12.3814 1.73164 11.7519 1.88028 11.1381C2.04466 10.4561 2.29472 9.79682 2.62523 9.16553C3.03967 8.37511 3.57828 7.63016 4.22006 6.94292C4.35995 6.79428 4.5051 6.64913 4.65374 6.50574C4.71144 6.44978 4.77265 6.39557 4.83211 6.34136C4.89156 6.2854 4.94927 6.22944 5.01222 6.17698C5.30426 5.91817 5.61378 5.66985 5.93729 5.43203C6.02123 5.37082 6.10692 5.31312 6.19261 5.25191C6.27829 5.19245 6.36398 5.13125 6.45141 5.07354C6.95679 4.73779 7.49365 4.43002 8.05848 4.15022C8.56911 3.89841 9.10072 3.66932 9.65331 3.46647C11.1677 2.91213 12.8325 2.55015 14.5882 2.42774C14.7036 2.41899 14.8225 2.4155 14.9379 2.4085C14.9974 2.405 15.0568 2.40151 15.118 2.39976C15.1775 2.39801 15.237 2.39276 15.2964 2.39101C15.508 2.38402 15.7196 2.38052 15.9329 2.38052C16.0169 2.38052 16.0991 2.38052 16.183 2.38227C16.3894 2.38577 16.5957 2.39101 16.8021 2.39976C16.8615 2.40326 16.921 2.40675 16.9804 2.41025C17.0399 2.41375 17.0993 2.41725 17.1605 2.42249C18.507 2.50818 19.8028 2.73201 21.0182 3.07826C21.5673 3.23564 22.0989 3.41576 22.613 3.61861C23.6255 4.01907 24.5628 4.51046 25.4127 5.07354C25.5002 5.133 25.5893 5.19245 25.675 5.25191C25.7607 5.31137 25.8464 5.37082 25.9303 5.43203C26.2556 5.66985 26.5634 5.91817 26.8572 6.17873C26.9184 6.23119 26.9778 6.2854 27.0355 6.33961C27.0967 6.39557 27.1544 6.45328 27.2156 6.51099C27.2943 6.58618 27.3748 6.65963 27.45 6.73482C28.0795 7.3731 28.6164 8.06734 29.0448 8.80355C29.4767 9.545 29.7932 10.3319 29.9891 11.1486C30.136 11.7571 30.2164 12.3832 30.2164 13.0232L30.2129 13.0197ZM8.05149 11.946C8.56211 11.6942 9.09372 11.4651 9.64632 11.2622C11.1607 10.7079 12.8255 10.3459 14.5812 10.2235C15.0236 10.192 15.473 10.1763 15.9277 10.1763C16.0116 10.1763 16.0938 10.1763 16.1778 10.178C17.8775 10.2008 19.5056 10.4438 21.013 10.874C21.5621 11.0297 22.0937 11.2115 22.6078 11.4144C24.5174 12.1716 26.1717 13.24 27.4447 14.5306C28.0743 15.1706 28.6111 15.8631 29.0396 16.5993C29.1008 16.7042 29.1567 16.8127 29.2144 16.9193C29.0728 17.1851 28.9189 17.4474 28.751 17.7028C28.3785 18.2676 27.9414 18.8027 27.4447 19.3046C26.1717 20.5951 24.5191 21.6653 22.6078 22.4208C22.0937 22.6254 21.5621 22.8055 21.013 22.9611C19.5056 23.3896 17.8775 23.6344 16.1778 23.6571C16.0938 23.6571 16.0116 23.6589 15.9277 23.6589C15.473 23.6589 15.0254 23.6431 14.5812 23.6117C12.8255 23.4893 11.1607 23.1273 9.64632 22.5729C9.09372 22.3701 8.56036 22.1427 8.05149 21.8892C6.54934 21.146 5.2448 20.1964 4.21306 19.0965C3.77064 18.6243 3.37718 18.1242 3.04142 17.6013C2.89803 17.3775 2.76338 17.1484 2.64097 16.9141C3.05191 16.1394 3.58177 15.4084 4.21306 14.7334C5.2448 13.6317 6.54934 12.6839 8.05149 11.9407V11.946Z" fill="#FFFFFF"/>
        <path d="M39.1992 28.7024L39.7448 28.0536C40.238 28.4803 40.7398 28.7234 41.3729 28.7234C41.9325 28.7234 42.2874 28.4576 42.2874 28.0746V28.0606C42.2874 27.6917 42.0811 27.4923 41.1228 27.272C40.0246 27.0062 39.4056 26.6826 39.4056 25.7313V25.7174C39.4056 24.8325 40.1418 24.2205 41.1665 24.2205C41.9185 24.2205 42.5148 24.4495 43.0394 24.8692L42.5533 25.5547C42.0881 25.2085 41.6247 25.0249 41.1525 25.0249C40.6227 25.0249 40.3131 25.2977 40.3131 25.6369V25.6509C40.3131 26.0496 40.5492 26.2262 41.5442 26.4623C42.6354 26.7281 43.195 27.1181 43.195 27.9732V27.9872C43.195 28.9525 42.4361 29.5278 41.3519 29.5278C40.5632 29.5278 39.8183 29.255 39.1992 28.7024Z" fill="#FFFFFF"/>
        <path d="M44.9189 26.8891V26.8751C44.9189 25.4236 46.0399 24.2065 47.6242 24.2065C49.2085 24.2065 50.3137 25.4079 50.3137 26.8593V26.8733C50.3137 28.3248 49.1928 29.5419 47.6085 29.5419C46.0241 29.5419 44.9189 28.3405 44.9189 26.8891ZM49.3624 26.8891V26.8751C49.3624 25.8731 48.6332 25.0407 47.6085 25.0407C46.5837 25.0407 45.8685 25.8591 45.8685 26.8611V26.8751C45.8685 27.8771 46.5977 28.7025 47.6225 28.7025C48.6472 28.7025 49.3624 27.8911 49.3624 26.8891Z" fill="#FFFFFF"/>
        <path d="M52.2959 24.2957H56.1361V25.121H53.2035V26.5288H55.8056V27.3542H53.2035V29.4544H52.2976V24.2957H52.2959Z" fill="#FFFFFF"/>
        <path d="M59.2823 25.135H57.6455V24.2957H61.8319V25.135H60.1951V29.4544H59.2806V25.135H59.2823Z" fill="#FFFFFF"/>
        <path d="M63.2783 24.2958H64.2576L65.4887 28.1202L66.7565 24.28H67.5224L68.7903 28.1202L70.0214 24.2958H70.9727L69.182 29.4912H68.3933L67.1255 25.7839L65.8577 29.4912H65.076L63.2783 24.2958Z" fill="#FFFFFF"/>
        <path d="M73.9483 24.259H74.7877L77.0575 29.4545H76.0993L75.5764 28.2094H73.1369L72.6053 29.4545H71.6768L73.9466 24.259H73.9483ZM75.2459 27.4067L74.354 25.3432L73.4692 27.4067H75.2459Z" fill="#FFFFFF"/>
        <path d="M78.8271 24.2957H81.1267C81.7755 24.2957 82.2844 24.4881 82.6149 24.8116C82.8877 25.0914 83.0416 25.4743 83.0416 25.9237V25.9377C83.0416 26.7859 82.5327 27.293 81.8175 27.4993L83.2112 29.4527H82.1357L80.8679 27.655H79.733V29.4527H78.8271V24.2939V24.2957ZM81.0603 26.8523C81.709 26.8523 82.1217 26.5131 82.1217 25.9902V25.9762C82.1217 25.4236 81.723 25.1211 81.0533 25.1211H79.7347V26.8523H81.062H81.0603Z" fill="#FFFFFF"/>
        <path d="M85.041 24.2957H88.8655V25.1071H85.9469V26.4483H88.5332V27.2597H85.9469V28.6447H88.9022V29.4561H85.041V24.2974V24.2957Z" fill="#FFFFFF"/>
        <path d="M87.651 20.6913H85.0996V8.6042H86.9305C87.0302 8.83154 87.1683 9.1463 87.3467 9.552C88.5393 8.62519 89.8579 8.26845 91.3268 8.34889C93.2801 8.45731 94.8767 9.62195 94.9816 11.5613C95.1495 14.6687 95.0271 17.5191 95.0271 20.6913H92.4984V19.7925C92.4984 17.4614 92.5019 15.4032 92.4967 13.0722C92.4932 11.8148 92.0997 11.1661 91.1816 10.8635C90.024 10.4823 88.3715 10.8985 87.8154 11.7501C87.6807 11.9565 87.6562 12.2608 87.6562 12.5213C87.6457 15.0167 87.6492 17.2411 87.6492 19.7348V20.6896L87.651 20.6913Z" fill="#FFFFFF"/>
        <path d="M72.5789 8.58134H75.1251C75.1251 9.59734 75.1111 14.5794 75.1461 16.218C75.1845 18.0017 76.2215 18.6504 77.7412 18.5595C79.336 18.4651 79.9445 17.7289 79.9463 16.1078C79.9463 13.5337 79.9463 11.2324 79.9463 8.60057H82.5536V9.44695C82.5536 11.8602 82.5536 14.0024 82.5536 16.4138C82.5536 19.0229 81.5376 20.324 78.9915 20.8118C77.638 21.0707 76.26 21.0234 74.9415 20.5565C73.6124 20.0861 72.6786 19.0841 72.6209 17.7324C72.4863 14.6214 72.5789 11.771 72.5789 8.57959V8.58134Z" fill="#FFFFFF"/>
        <path d="M69.8704 18.6749C69.9071 19.336 69.9421 19.9515 69.9788 20.6073C68.7267 21.0252 67.8121 21.1004 66.637 20.6003C65.294 20.0285 64.9163 18.8393 64.9005 17.5086C64.8761 15.4241 64.8953 13.3414 64.8918 11.2569C64.8918 10.9631 64.8673 10.6711 64.8533 10.3353C64.3305 10.2934 63.8775 10.2584 63.3896 10.2182V8.29458H64.9373C65.1174 7.26983 65.2818 6.33602 65.4514 5.37248C66.1037 5.30078 66.7209 5.23258 67.4589 5.15039V8.25261H70.3653V10.2391H67.5481C67.5236 10.6396 67.4904 10.9281 67.4886 11.2149C67.4834 13.0791 67.4834 14.9432 67.4869 16.8091C67.4886 18.4161 67.8769 18.9827 69.4734 18.7134C69.5749 18.6959 69.6763 18.6924 69.8739 18.6732L69.8704 18.6749Z" fill="#FFFFFF"/>
        <path d="M115.206 8.07768C113.354 8.07768 112.128 8.50261 110.879 9.11466L111.589 11.4002C112.623 10.9281 113.569 10.6221 114.84 10.6221C116.648 10.6221 117.638 11.5646 117.638 13.2853V13.5914C116.755 13.2853 115.874 13.072 114.496 13.072C111.848 13.072 109.89 14.3923 109.89 17.0783V17.1255C109.89 19.6244 111.784 20.9674 113.936 20.9674C115.447 20.9674 116.544 20.3694 117.313 19.5387C117.427 19.9882 117.518 20.3537 117.605 20.6999H117.617V20.7104H120.2V13.3326C120.2 10.01 118.565 8.07593 115.206 8.07593V8.07768ZM112.473 16.9856V16.9384C112.473 15.6653 113.441 14.9344 115.076 14.9344C116.087 14.9344 117.014 15.146 117.68 15.4293V16.2074C117.68 17.7621 116.388 18.8235 114.667 18.8235C113.44 18.8235 112.471 18.1643 112.471 16.9856H112.473Z" fill="#FFFFFF"/>
        <path d="M56.6748 20.9185C53.2595 20.9185 50.8096 18.1555 50.8096 14.742V14.707C50.8096 11.2918 53.291 8.49561 56.7062 8.49561C60.1215 8.49561 62.5714 11.2586 62.5714 14.6721V14.707C62.5714 18.1223 60.09 20.9185 56.6748 20.9185ZM60.027 14.707C60.027 12.6471 58.6351 10.9316 56.6748 10.9316C54.7145 10.9316 53.3557 12.6138 53.3557 14.6721V14.707C53.3557 16.7653 54.7459 18.4825 56.708 18.4825C58.67 18.4825 60.0288 16.8002 60.0288 14.742V14.707H60.027Z" fill="#FFFFFF"/>
        <path d="M108.65 4.5H106.15V10.5401C105.314 9.45236 104.104 8.74413 102.191 8.74413C99.4188 8.74413 96.8027 10.673 96.8027 14.5831C96.8027 18.4932 99.4643 20.9641 102.191 20.9641C103.757 20.9641 104.856 20.2926 105.674 19.3676L106.15 20.6844L106.153 20.6948H108.65L108.645 20.6861H108.65V4.5ZM102.626 18.6244C100.825 18.5282 99.3803 16.7095 99.5045 14.403C99.6304 12.0509 101.208 10.9842 103.032 11.0822C104.81 11.1783 106.312 12.7504 106.19 15.0343C106.067 17.3198 104.406 18.7205 102.626 18.6244Z" fill="#FFFFFF"/>
        <path d="M47.0161 14.0968C47.6247 17.5435 50.5712 20.6982 50.5712 20.6982H47.3151C47.3151 20.6982 45.2254 18.2046 44.4542 14.6512C44.052 14.6442 41.8294 14.6512 41.8294 14.6512V20.6982H39V5.32178H44.4333C48.0409 5.32178 49.7843 6.77671 49.7843 9.93489C49.7843 12.1907 48.6179 13.7978 47.0161 14.0968ZM44.4542 7.742H41.8294V12.4565H44.3721C46.1155 12.4565 46.8517 11.883 46.8517 10.0381C46.8517 8.33656 46.154 7.742 44.4525 7.742H44.4542Z" fill="#FFFFFF"/>
    </g>
    <defs>
        <clipPath id="clip0_4_223">
            <rect width="120" height="33" fill="white" transform="translate(0 0.5)"/>
        </clipPath>
    </defs>
</svg>